<mxfile host="app.diagrams.net" modified="2023-12-04T18:14:43.166Z" agent="Mozilla/5.0 (Macintosh; Intel Mac OS X 10_15_7) AppleWebKit/537.36 (KHTML, like Gecko) Chrome/119.0.0.0 Safari/537.36" etag="wTJSEj9bVrBGUm850vF1" version="21.7.2" type="device">
  <diagram name="PÃ¡gina-1" id="rdudRR3mVjyZs11nzxRL">
    <mxGraphModel dx="1975" dy="749" grid="1" gridSize="10" guides="1" tooltips="1" connect="1" arrows="1" fold="1" page="1" pageScale="1" pageWidth="850" pageHeight="1100" math="0" shadow="0">
      <root>
        <mxCell id="0" />
        <mxCell id="1" parent="0" />
        <mxCell id="RU3b1Y3XTVv_Zi3fL5yk-35" value="" style="group" vertex="1" connectable="0" parent="1">
          <mxGeometry x="617.2" y="140" width="370" height="370" as="geometry" />
        </mxCell>
        <mxCell id="RU3b1Y3XTVv_Zi3fL5yk-12" value="API - Instance 1" style="shape=parallelogram;perimeter=parallelogramPerimeter;whiteSpace=wrap;html=1;fixedSize=1;" vertex="1" parent="RU3b1Y3XTVv_Zi3fL5yk-35">
          <mxGeometry y="160" width="120" height="60" as="geometry" />
        </mxCell>
        <mxCell id="RU3b1Y3XTVv_Zi3fL5yk-13" value="API - Instance 1" style="shape=parallelogram;perimeter=parallelogramPerimeter;whiteSpace=wrap;html=1;fixedSize=1;" vertex="1" parent="RU3b1Y3XTVv_Zi3fL5yk-35">
          <mxGeometry x="250" y="160" width="120" height="60" as="geometry" />
        </mxCell>
        <mxCell id="RU3b1Y3XTVv_Zi3fL5yk-16" style="edgeStyle=orthogonalEdgeStyle;rounded=0;orthogonalLoop=1;jettySize=auto;html=1;exitX=0;exitY=0.25;exitDx=0;exitDy=0;entryX=0.25;entryY=0;entryDx=0;entryDy=0;" edge="1" parent="RU3b1Y3XTVv_Zi3fL5yk-35" source="RU3b1Y3XTVv_Zi3fL5yk-14" target="RU3b1Y3XTVv_Zi3fL5yk-12">
          <mxGeometry relative="1" as="geometry" />
        </mxCell>
        <mxCell id="RU3b1Y3XTVv_Zi3fL5yk-19" style="edgeStyle=orthogonalEdgeStyle;rounded=0;orthogonalLoop=1;jettySize=auto;html=1;exitX=1;exitY=0.25;exitDx=0;exitDy=0;entryX=0.75;entryY=0;entryDx=0;entryDy=0;" edge="1" parent="RU3b1Y3XTVv_Zi3fL5yk-35" source="RU3b1Y3XTVv_Zi3fL5yk-14" target="RU3b1Y3XTVv_Zi3fL5yk-13">
          <mxGeometry relative="1" as="geometry" />
        </mxCell>
        <mxCell id="RU3b1Y3XTVv_Zi3fL5yk-14" value="NGINX&lt;br&gt;LoadBalance" style="rounded=1;whiteSpace=wrap;html=1;" vertex="1" parent="RU3b1Y3XTVv_Zi3fL5yk-35">
          <mxGeometry x="130" width="120" height="60" as="geometry" />
        </mxCell>
        <mxCell id="RU3b1Y3XTVv_Zi3fL5yk-17" style="edgeStyle=orthogonalEdgeStyle;rounded=0;orthogonalLoop=1;jettySize=auto;html=1;exitX=0.75;exitY=0;exitDx=0;exitDy=0;entryX=0;entryY=0.75;entryDx=0;entryDy=0;" edge="1" parent="RU3b1Y3XTVv_Zi3fL5yk-35" source="RU3b1Y3XTVv_Zi3fL5yk-12" target="RU3b1Y3XTVv_Zi3fL5yk-14">
          <mxGeometry relative="1" as="geometry" />
        </mxCell>
        <mxCell id="RU3b1Y3XTVv_Zi3fL5yk-18" style="edgeStyle=orthogonalEdgeStyle;rounded=0;orthogonalLoop=1;jettySize=auto;html=1;exitX=0.25;exitY=0;exitDx=0;exitDy=0;entryX=1;entryY=0.75;entryDx=0;entryDy=0;" edge="1" parent="RU3b1Y3XTVv_Zi3fL5yk-35" source="RU3b1Y3XTVv_Zi3fL5yk-13" target="RU3b1Y3XTVv_Zi3fL5yk-14">
          <mxGeometry relative="1" as="geometry" />
        </mxCell>
        <mxCell id="RU3b1Y3XTVv_Zi3fL5yk-22" style="edgeStyle=orthogonalEdgeStyle;rounded=0;orthogonalLoop=1;jettySize=auto;html=1;exitX=0;exitY=0;exitDx=0;exitDy=27.5;exitPerimeter=0;entryX=0.5;entryY=1;entryDx=0;entryDy=0;" edge="1" parent="RU3b1Y3XTVv_Zi3fL5yk-35" source="RU3b1Y3XTVv_Zi3fL5yk-15" target="RU3b1Y3XTVv_Zi3fL5yk-12">
          <mxGeometry relative="1" as="geometry" />
        </mxCell>
        <mxCell id="RU3b1Y3XTVv_Zi3fL5yk-23" style="edgeStyle=orthogonalEdgeStyle;rounded=0;orthogonalLoop=1;jettySize=auto;html=1;exitX=1;exitY=0;exitDx=0;exitDy=27.5;exitPerimeter=0;" edge="1" parent="RU3b1Y3XTVv_Zi3fL5yk-35" source="RU3b1Y3XTVv_Zi3fL5yk-15" target="RU3b1Y3XTVv_Zi3fL5yk-13">
          <mxGeometry relative="1" as="geometry" />
        </mxCell>
        <mxCell id="RU3b1Y3XTVv_Zi3fL5yk-15" value="Postgress" style="shape=cylinder3;whiteSpace=wrap;html=1;boundedLbl=1;backgroundOutline=1;size=15;" vertex="1" parent="RU3b1Y3XTVv_Zi3fL5yk-35">
          <mxGeometry x="160" y="290" width="60" height="80" as="geometry" />
        </mxCell>
        <mxCell id="RU3b1Y3XTVv_Zi3fL5yk-20" style="edgeStyle=orthogonalEdgeStyle;rounded=0;orthogonalLoop=1;jettySize=auto;html=1;exitX=0.25;exitY=1;exitDx=0;exitDy=0;entryX=0;entryY=0;entryDx=0;entryDy=52.5;entryPerimeter=0;" edge="1" parent="RU3b1Y3XTVv_Zi3fL5yk-35" source="RU3b1Y3XTVv_Zi3fL5yk-12" target="RU3b1Y3XTVv_Zi3fL5yk-15">
          <mxGeometry relative="1" as="geometry" />
        </mxCell>
        <mxCell id="RU3b1Y3XTVv_Zi3fL5yk-21" style="edgeStyle=orthogonalEdgeStyle;rounded=0;orthogonalLoop=1;jettySize=auto;html=1;exitX=0.75;exitY=1;exitDx=0;exitDy=0;entryX=1;entryY=0;entryDx=0;entryDy=52.5;entryPerimeter=0;" edge="1" parent="RU3b1Y3XTVv_Zi3fL5yk-35" source="RU3b1Y3XTVv_Zi3fL5yk-13" target="RU3b1Y3XTVv_Zi3fL5yk-15">
          <mxGeometry relative="1" as="geometry" />
        </mxCell>
        <mxCell id="RU3b1Y3XTVv_Zi3fL5yk-39" style="edgeStyle=orthogonalEdgeStyle;rounded=0;orthogonalLoop=1;jettySize=auto;html=1;exitX=1;exitY=0.75;exitDx=0;exitDy=0;entryX=1;entryY=0.25;entryDx=0;entryDy=0;" edge="1" parent="RU3b1Y3XTVv_Zi3fL5yk-35" source="RU3b1Y3XTVv_Zi3fL5yk-13" target="RU3b1Y3XTVv_Zi3fL5yk-30">
          <mxGeometry relative="1" as="geometry">
            <Array as="points">
              <mxPoint x="373" y="201" />
              <mxPoint x="373" y="445" />
            </Array>
          </mxGeometry>
        </mxCell>
        <mxCell id="RU3b1Y3XTVv_Zi3fL5yk-45" value="Send&lt;br&gt;Logs" style="edgeLabel;html=1;align=center;verticalAlign=middle;resizable=0;points=[];" vertex="1" connectable="0" parent="RU3b1Y3XTVv_Zi3fL5yk-39">
          <mxGeometry x="-0.2247" relative="1" as="geometry">
            <mxPoint as="offset" />
          </mxGeometry>
        </mxCell>
        <mxCell id="RU3b1Y3XTVv_Zi3fL5yk-32" value="" style="group" vertex="1" connectable="0" parent="1">
          <mxGeometry x="660" y="550" width="274.4" height="140" as="geometry" />
        </mxCell>
        <mxCell id="RU3b1Y3XTVv_Zi3fL5yk-30" value="" style="rounded=1;whiteSpace=wrap;html=1;" vertex="1" parent="RU3b1Y3XTVv_Zi3fL5yk-32">
          <mxGeometry width="274.4" height="140" as="geometry" />
        </mxCell>
        <mxCell id="RU3b1Y3XTVv_Zi3fL5yk-26" value="" style="shape=image;verticalLabelPosition=bottom;labelBackgroundColor=default;verticalAlign=top;aspect=fixed;imageAspect=0;image=https://miro.medium.com/v2/resize:fit:660/1*yuhNL6d5DwVoXGwZWeb9ig.png;clipPath=inset(25.93% 11% 3.7% 7.33%);" vertex="1" parent="RU3b1Y3XTVv_Zi3fL5yk-32">
          <mxGeometry x="4.642399999999979" y="39.2" width="265.1152" height="82.23981714285713" as="geometry" />
        </mxCell>
        <mxCell id="RU3b1Y3XTVv_Zi3fL5yk-29" value="Observability" style="text;html=1;strokeColor=none;fillColor=none;align=center;verticalAlign=middle;whiteSpace=wrap;rounded=0;fontSize=28;" vertex="1" parent="RU3b1Y3XTVv_Zi3fL5yk-32">
          <mxGeometry x="120.39999999999999" y="11.2" width="33.599999999999994" height="16.8" as="geometry" />
        </mxCell>
        <mxCell id="RU3b1Y3XTVv_Zi3fL5yk-33" value="" style="group" vertex="1" connectable="0" parent="1">
          <mxGeometry x="660" y="700" width="274.4" height="140" as="geometry" />
        </mxCell>
        <mxCell id="RU3b1Y3XTVv_Zi3fL5yk-31" value="" style="rounded=1;whiteSpace=wrap;html=1;" vertex="1" parent="RU3b1Y3XTVv_Zi3fL5yk-33">
          <mxGeometry width="274.4" height="140" as="geometry" />
        </mxCell>
        <mxCell id="RU3b1Y3XTVv_Zi3fL5yk-27" value="" style="shape=image;verticalLabelPosition=bottom;labelBackgroundColor=default;verticalAlign=top;aspect=fixed;imageAspect=0;image=https://res.cloudinary.com/practicaldev/image/fetch/s--HiwM-kfa--/c_imagga_scale,f_auto,fl_progressive,h_900,q_auto,w_1600/https://dev-to-uploads.s3.amazonaws.com/i/u17n397qj8a8l6u3o2cs.png;clipPath=inset(26.33% 13.67% 28.11% 18%);" vertex="1" parent="RU3b1Y3XTVv_Zi3fL5yk-33">
          <mxGeometry x="10.472000000000024" y="39.2" width="253.456" height="95.19999999999999" as="geometry" />
        </mxCell>
        <mxCell id="RU3b1Y3XTVv_Zi3fL5yk-28" value="Metrics" style="text;html=1;strokeColor=none;fillColor=none;align=center;verticalAlign=middle;whiteSpace=wrap;rounded=0;fontSize=28;" vertex="1" parent="RU3b1Y3XTVv_Zi3fL5yk-33">
          <mxGeometry x="120.39999999999999" y="11.200000000000001" width="33.599999999999994" height="16.8" as="geometry" />
        </mxCell>
        <mxCell id="RU3b1Y3XTVv_Zi3fL5yk-40" style="edgeStyle=orthogonalEdgeStyle;rounded=0;orthogonalLoop=1;jettySize=auto;html=1;exitX=1;exitY=0.25;exitDx=0;exitDy=0;entryX=1;entryY=0.25;entryDx=0;entryDy=0;" edge="1" parent="1" source="RU3b1Y3XTVv_Zi3fL5yk-13" target="RU3b1Y3XTVv_Zi3fL5yk-31">
          <mxGeometry relative="1" as="geometry">
            <Array as="points">
              <mxPoint x="1030" y="316" />
              <mxPoint x="1030" y="735" />
            </Array>
          </mxGeometry>
        </mxCell>
        <mxCell id="RU3b1Y3XTVv_Zi3fL5yk-43" value="Send&lt;br&gt;Metrics" style="edgeLabel;html=1;align=center;verticalAlign=middle;resizable=0;points=[];" vertex="1" connectable="0" parent="RU3b1Y3XTVv_Zi3fL5yk-40">
          <mxGeometry x="-0.0883" y="1" relative="1" as="geometry">
            <mxPoint as="offset" />
          </mxGeometry>
        </mxCell>
        <mxCell id="RU3b1Y3XTVv_Zi3fL5yk-41" style="edgeStyle=orthogonalEdgeStyle;rounded=0;orthogonalLoop=1;jettySize=auto;html=1;exitX=0;exitY=0.75;exitDx=0;exitDy=0;entryX=0;entryY=0.25;entryDx=0;entryDy=0;" edge="1" parent="1" source="RU3b1Y3XTVv_Zi3fL5yk-12" target="RU3b1Y3XTVv_Zi3fL5yk-30">
          <mxGeometry relative="1" as="geometry">
            <Array as="points">
              <mxPoint x="590" y="344" />
              <mxPoint x="590" y="585" />
            </Array>
          </mxGeometry>
        </mxCell>
        <mxCell id="RU3b1Y3XTVv_Zi3fL5yk-46" value="Send&lt;br&gt;Logs" style="edgeLabel;html=1;align=center;verticalAlign=middle;resizable=0;points=[];" vertex="1" connectable="0" parent="RU3b1Y3XTVv_Zi3fL5yk-41">
          <mxGeometry x="-0.1194" y="2" relative="1" as="geometry">
            <mxPoint as="offset" />
          </mxGeometry>
        </mxCell>
        <mxCell id="RU3b1Y3XTVv_Zi3fL5yk-42" style="edgeStyle=orthogonalEdgeStyle;rounded=0;orthogonalLoop=1;jettySize=auto;html=1;exitX=0;exitY=0.25;exitDx=0;exitDy=0;entryX=0;entryY=0.25;entryDx=0;entryDy=0;" edge="1" parent="1" source="RU3b1Y3XTVv_Zi3fL5yk-12" target="RU3b1Y3XTVv_Zi3fL5yk-31">
          <mxGeometry relative="1" as="geometry">
            <Array as="points">
              <mxPoint x="550" y="319" />
              <mxPoint x="550" y="735" />
            </Array>
          </mxGeometry>
        </mxCell>
        <mxCell id="RU3b1Y3XTVv_Zi3fL5yk-44" value="Send&lt;br&gt;Metrics" style="edgeLabel;html=1;align=center;verticalAlign=middle;resizable=0;points=[];" vertex="1" connectable="0" parent="RU3b1Y3XTVv_Zi3fL5yk-42">
          <mxGeometry x="-0.1111" y="-2" relative="1" as="geometry">
            <mxPoint as="offset" />
          </mxGeometry>
        </mxCell>
      </root>
    </mxGraphModel>
  </diagram>
</mxfile>
